<svg xmlns="http://www.w3.org/2000/svg" width="495" height="200" viewBox="0 0 495 200"><style>text{font-family:'Segoe UI', Ubuntu, 'Helvetica Neue', Arial, sans-serif}</style><rect x="0.5" y="0.5" width="494" height="199" rx="10" fill="#0B1426" stroke="#22304F"/><rect x="0.5" y="0.5" width="4" height="199" rx="2" fill="#E62429"/><g stroke="#E62429" stroke-width="0.8" opacity="0.35"><line x1="494" y1="1" x2="487.9" y2="70.7"/><line x1="494" y1="1" x2="467.8" y2="65.9"/><line x1="494" y1="1" x2="449.9" y2="55.4"/><line x1="494" y1="1" x2="436.0" y2="40.1"/><line x1="494" y1="1" x2="427.1" y2="21.5"/><line x1="494" y1="1" x2="424.0" y2="1.0"/><polyline points="492.3,20.9 486.5,19.5 481.4,16.5 477.4,12.2 474.9,6.8 474.0,1.0" fill="none"/><polyline points="490.7,38.9 479.8,36.2 470.1,30.5 462.5,22.2 457.7,12.1 456.0,1.0" fill="none"/><polyline points="489.1,56.8 473.0,52.9 458.8,44.5 447.6,32.3 440.4,17.4 438.0,1.0" fill="none"/></g><text x="25" y="38" fill="#E62429" font-size="18" font-weight="700">Estatísticas do GitHub</text><rect x="27" y="65" width="9" height="9" rx="2" fill="none" stroke="#3B6BF0" stroke-width="2" transform="rotate(45 31.5 69.5)"/><text x="50" y="75" fill="#C9D6FF" font-size="14" font-weight="600">Total de estrelas:</text><text x="250" y="75" fill="#FFFFFF" font-size="14" font-weight="700">0</text><rect x="27" y="90" width="9" height="9" rx="2" fill="none" stroke="#3B6BF0" stroke-width="2" transform="rotate(45 31.5 94.5)"/><text x="50" y="100" fill="#C9D6FF" font-size="14" font-weight="600">Commits (último ano):</text><text x="250" y="100" fill="#FFFFFF" font-size="14" font-weight="700">34</text><rect x="27" y="115" width="9" height="9" rx="2" fill="none" stroke="#3B6BF0" stroke-width="2" transform="rotate(45 31.5 119.5)"/><text x="50" y="125" fill="#C9D6FF" font-size="14" font-weight="600">Pull requests:</text><text x="250" y="125" fill="#FFFFFF" font-size="14" font-weight="700">8</text><rect x="27" y="140" width="9" height="9" rx="2" fill="none" stroke="#3B6BF0" stroke-width="2" transform="rotate(45 31.5 144.5)"/><text x="50" y="150" fill="#C9D6FF" font-size="14" font-weight="600">Issues:</text><text x="250" y="150" fill="#FFFFFF" font-size="14" font-weight="700">0</text><rect x="27" y="165" width="9" height="9" rx="2" fill="none" stroke="#3B6BF0" stroke-width="2" transform="rotate(45 31.5 169.5)"/><text x="50" y="175" fill="#C9D6FF" font-size="14" font-weight="600">Repositórios:</text><text x="250" y="175" fill="#FFFFFF" font-size="14" font-weight="700">5</text><circle cx="395" cy="110" r="48" fill="none" stroke="#22304F" stroke-width="8"/><circle cx="395" cy="110" r="48" fill="none" stroke="#E62429" stroke-width="8" stroke-linecap="round" stroke-dasharray="40.5 301.6" transform="rotate(-90 395 110)"/><text x="395" y="114" text-anchor="middle" fill="#FFFFFF" font-size="24" font-weight="800">49</text><text x="395" y="132" text-anchor="middle" fill="#7F8BB0" font-size="10">contribuições</text></svg>